<?xml version="1.0" encoding="UTF-8" standalone="no"?>
<!DOCTYPE svg PUBLIC "-//W3C//DTD SVG 1.1//EN"
 "http://www.w3.org/Graphics/SVG/1.1/DTD/svg11.dtd">
<!-- Generated by graphviz version 2.44.1 (0)
 -->
<!-- Title: G Pages: 1 -->
<svg width="476pt" height="711pt"
 viewBox="0.00 0.00 476.12 711.28" xmlns="http://www.w3.org/2000/svg" xmlns:xlink="http://www.w3.org/1999/xlink">
<g id="graph0" class="graph" transform="scale(1 1) rotate(0) translate(4 707.28)">
<title>G</title><style>.edge>path:hover{stroke-width:8}</style>
<polygon fill="white" stroke="transparent" points="-4,4 -4,-707.28 472.12,-707.28 472.12,4 -4,4"/>
<!-- dateutil -->
<g id="node1" class="node">
<title>dateutil</title><style>.edge>path:hover{stroke-width:8}</style>
<ellipse fill="#b65353" stroke="black" cx="387" cy="-531.64" rx="31.58" ry="18"/>
<text text-anchor="middle" x="387" y="-529.14" font-family="Helvetica,sans-Serif" font-size="10.00" fill="#ffffff">dateutil</text>
</g>
<!-- dgeq_types -->
<g id="node12" class="node">
<title>dgeq_types</title><style>.edge>path:hover{stroke-width:8}</style>
<ellipse fill="#3ab0b0" stroke="black" cx="339" cy="-384.43" rx="41.59" ry="18"/>
<text text-anchor="middle" x="339" y="-381.93" font-family="Helvetica,sans-Serif" font-size="10.00" fill="#000000">dgeq.types</text>
</g>
<!-- dateutil&#45;&gt;dgeq_types -->
<g id="edge1" class="edge">
<title>dateutil&#45;&gt;dgeq_types</title><style>.edge>path:hover{stroke-width:8}</style>
<path fill="none" stroke="black" d="M373.46,-515.16C362.46,-500.68 349.59,-478.23 355,-457.43"/>
</g>
<!-- dateutil_parser -->
<g id="node2" class="node">
<title>dateutil_parser</title><style>.edge>path:hover{stroke-width:8}</style>
<ellipse fill="#b65353" stroke="black" cx="189" cy="-531.64" rx="40.11" ry="21.43"/>
<text text-anchor="middle" x="189" y="-534.64" font-family="Helvetica,sans-Serif" font-size="10.00" fill="#ffffff">dateutil.</text>
<text text-anchor="middle" x="189" y="-523.64" font-family="Helvetica,sans-Serif" font-size="10.00" fill="#ffffff">parser</text>
</g>
<!-- dateutil_parser&#45;&gt;dgeq_types -->
<g id="edge2" class="edge">
<title>dateutil_parser&#45;&gt;dgeq_types</title><style>.edge>path:hover{stroke-width:8}</style>
<path fill="none" stroke="black" d="M219.63,-517.84C267.33,-497.81 354.08,-460.96 355,-457.43"/>
<path fill="none" stroke="black" d="M355,-455.43C358.75,-441.01 355.51,-424.79 350.99,-411.6"/>
<polygon fill="#b65353" stroke="black" points="354.23,-410.27 347.38,-402.18 347.69,-412.77 354.23,-410.27"/>
</g>
<!-- dgeq -->
<g id="node3" class="node">
<title>dgeq</title><style>.edge>path:hover{stroke-width:8}</style>
<ellipse fill="#0ce9e9" stroke="black" cx="27" cy="-18" rx="27" ry="18"/>
<text text-anchor="middle" x="27" y="-15.5" font-family="Helvetica,sans-Serif" font-size="10.00" fill="#000000">dgeq</text>
</g>
<!-- dgeq_aggregations -->
<g id="node4" class="node">
<title>dgeq_aggregations</title><style>.edge>path:hover{stroke-width:8}</style>
<ellipse fill="#35a1a1" stroke="black" cx="184" cy="-237.21" rx="56.64" ry="21.43"/>
<text text-anchor="middle" x="184" y="-240.21" font-family="Helvetica,sans-Serif" font-size="10.00" fill="#000000">dgeq.</text>
<text text-anchor="middle" x="184" y="-229.21" font-family="Helvetica,sans-Serif" font-size="10.00" fill="#000000">aggregations</text>
</g>
<!-- dgeq_commands -->
<g id="node6" class="node">
<title>dgeq_commands</title><style>.edge>path:hover{stroke-width:8}</style>
<ellipse fill="#309191" stroke="black" cx="166" cy="-162" rx="57.88" ry="18"/>
<text text-anchor="middle" x="166" y="-159.5" font-family="Helvetica,sans-Serif" font-size="10.00" fill="#ffffff">dgeq.commands</text>
</g>
<!-- dgeq_aggregations&#45;&gt;dgeq_commands -->
<g id="edge3" class="edge">
<title>dgeq_aggregations&#45;&gt;dgeq_commands</title><style>.edge>path:hover{stroke-width:8}</style>
<path fill="none" stroke="black" d="M178.99,-215.82C177.03,-207.88 174.77,-198.66 172.68,-190.17"/>
<polygon fill="#35a1a1" stroke="black" points="176.04,-189.19 170.26,-180.31 169.24,-190.86 176.04,-189.19"/>
</g>
<!-- dgeq_censor -->
<g id="node5" class="node">
<title>dgeq_censor</title><style>.edge>path:hover{stroke-width:8}</style>
<ellipse fill="#19e6e6" stroke="black" cx="292" cy="-531.64" rx="44.98" ry="18"/>
<text text-anchor="middle" x="292" y="-529.14" font-family="Helvetica,sans-Serif" font-size="10.00" fill="#000000">dgeq.censor</text>
</g>
<!-- dgeq_censor&#45;&gt;dgeq_aggregations -->
<g id="edge4" class="edge">
<title>dgeq_censor&#45;&gt;dgeq_aggregations</title><style>.edge>path:hover{stroke-width:8}</style>
<path fill="none" stroke="black" d="M281.95,-513.87C261.09,-478.29 213.08,-392.04 189,-313.43"/>
</g>
<!-- dgeq_dgeq -->
<g id="node8" class="node">
<title>dgeq_dgeq</title><style>.edge>path:hover{stroke-width:8}</style>
<ellipse fill="#309191" stroke="black" cx="61" cy="-90" rx="40.06" ry="18"/>
<text text-anchor="middle" x="61" y="-87.5" font-family="Helvetica,sans-Serif" font-size="10.00" fill="#ffffff">dgeq.dgeq</text>
</g>
<!-- dgeq_censor&#45;&gt;dgeq_dgeq -->
<g id="edge5" class="edge">
<title>dgeq_censor&#45;&gt;dgeq_dgeq</title><style>.edge>path:hover{stroke-width:8}</style>
<path fill="none" stroke="black" d="M409,-455.43C429.82,-426.8 447,-420.83 447,-385.43"/>
<path fill="none" stroke="black" d="M447,-383.43C447,-285.46 487.49,-252.21 447,-163"/>
</g>
<!-- dgeq_joins -->
<g id="node11" class="node">
<title>dgeq_joins</title><style>.edge>path:hover{stroke-width:8}</style>
<ellipse fill="#2bacac" stroke="black" cx="358" cy="-237.21" rx="39.38" ry="18"/>
<text text-anchor="middle" x="358" y="-234.71" font-family="Helvetica,sans-Serif" font-size="10.00" fill="#000000">dgeq.joins</text>
</g>
<!-- dgeq_censor&#45;&gt;dgeq_joins -->
<g id="edge6" class="edge">
<title>dgeq_censor&#45;&gt;dgeq_joins</title><style>.edge>path:hover{stroke-width:8}</style>
<path fill="none" stroke="black" d="M323.63,-518.79C350.35,-507.17 387.58,-486.88 409,-457.43"/>
<path fill="none" stroke="black" d="M409,-455.43C427.3,-430.26 418.26,-415.13 409,-385.43"/>
<path fill="none" stroke="black" d="M409,-383.43C399.12,-351.74 378.12,-346.25 383,-313.43"/>
</g>
<!-- dgeq_utils -->
<g id="node13" class="node">
<title>dgeq_utils</title><style>.edge>path:hover{stroke-width:8}</style>
<ellipse fill="#05e5e5" stroke="black" cx="127" cy="-456.43" rx="38.03" ry="18"/>
<text text-anchor="middle" x="127" y="-453.93" font-family="Helvetica,sans-Serif" font-size="10.00" fill="#000000">dgeq.utils</text>
</g>
<!-- dgeq_censor&#45;&gt;dgeq_utils -->
<g id="edge7" class="edge">
<title>dgeq_censor&#45;&gt;dgeq_utils</title><style>.edge>path:hover{stroke-width:8}</style>
<path fill="none" stroke="black" d="M262.88,-517.72C235.08,-505.38 193.11,-486.76 163.18,-473.48"/>
<polygon fill="#19e6e6" stroke="black" points="164.48,-470.23 153.92,-469.37 161.64,-476.62 164.48,-470.23"/>
</g>
<!-- dgeq_commands&#45;&gt;dgeq_dgeq -->
<g id="edge8" class="edge">
<title>dgeq_commands&#45;&gt;dgeq_dgeq</title><style>.edge>path:hover{stroke-width:8}</style>
<path fill="none" stroke="black" d="M142.7,-145.46C127.51,-135.34 107.53,-122.02 91.14,-111.09"/>
<polygon fill="#309191" stroke="black" points="92.71,-107.93 82.45,-105.3 88.83,-113.76 92.71,-107.93"/>
</g>
<!-- dgeq_constants -->
<g id="node7" class="node">
<title>dgeq_constants</title><style>.edge>path:hover{stroke-width:8}</style>
<ellipse fill="#22e7e7" stroke="black" cx="292" cy="-685.28" rx="53.64" ry="18"/>
<text text-anchor="middle" x="292" y="-682.78" font-family="Helvetica,sans-Serif" font-size="10.00" fill="#000000">dgeq.constants</text>
</g>
<!-- dgeq_constants&#45;&gt;dgeq_commands -->
<g id="edge9" class="edge">
<title>dgeq_constants&#45;&gt;dgeq_commands</title><style>.edge>path:hover{stroke-width:8}</style>
<path fill="none" stroke="black" d="M250.3,-673.87C190.56,-656.15 87.31,-613.89 83,-532.64"/>
<path fill="none" stroke="black" d="M83,-530.64C61.47,-464.21 23,-455.26 23,-385.43 23,-385.43 23,-385.43 23,-311.43 23,-251.42 84.36,-206.34 126.69,-182.38"/>
<polygon fill="#22e7e7" stroke="black" points="128.59,-185.33 135.67,-177.45 125.22,-179.19 128.59,-185.33"/>
</g>
<!-- dgeq_constants&#45;&gt;dgeq_dgeq -->
<g id="edge10" class="edge">
<title>dgeq_constants&#45;&gt;dgeq_dgeq</title><style>.edge>path:hover{stroke-width:8}</style>
<path fill="none" stroke="black" d="M320.56,-669.9C357.83,-649.46 421.83,-608.26 452,-552.85 476.4,-508.05 467.57,-489.01 461,-438.43 457.86,-414.27 445.82,-409.76 447,-385.43"/>
</g>
<!-- dgeq_exceptions -->
<g id="node9" class="node">
<title>dgeq_exceptions</title><style>.edge>path:hover{stroke-width:8}</style>
<ellipse fill="#06efef" stroke="black" cx="292" cy="-610.07" rx="49.49" ry="21.43"/>
<text text-anchor="middle" x="292" y="-613.07" font-family="Helvetica,sans-Serif" font-size="10.00" fill="#000000">dgeq.</text>
<text text-anchor="middle" x="292" y="-602.07" font-family="Helvetica,sans-Serif" font-size="10.00" fill="#000000">exceptions</text>
</g>
<!-- dgeq_constants&#45;&gt;dgeq_exceptions -->
<g id="edge11" class="edge">
<title>dgeq_constants&#45;&gt;dgeq_exceptions</title><style>.edge>path:hover{stroke-width:8}</style>
<path fill="none" stroke="black" d="M292,-666.93C292,-659.35 292,-650.24 292,-641.59"/>
<polygon fill="#22e7e7" stroke="black" points="295.5,-641.41 292,-631.41 288.5,-641.41 295.5,-641.41"/>
</g>
<!-- dgeq_constants&#45;&gt;dgeq_utils -->
<g id="edge12" class="edge">
<title>dgeq_constants&#45;&gt;dgeq_utils</title><style>.edge>path:hover{stroke-width:8}</style>
<path fill="none" stroke="black" d="M83,-530.64C82.01,-512 92.63,-493.99 103.69,-480.5"/>
<polygon fill="#22e7e7" stroke="black" points="106.55,-482.54 110.52,-472.71 101.29,-477.92 106.55,-482.54"/>
</g>
<!-- dgeq_dgeq&#45;&gt;dgeq -->
<g id="edge13" class="edge">
<title>dgeq_dgeq&#45;&gt;dgeq</title><style>.edge>path:hover{stroke-width:8}</style>
<path fill="none" stroke="black" d="M52.77,-72.05C48.74,-63.77 43.81,-53.62 39.35,-44.42"/>
<polygon fill="#309191" stroke="black" points="42.44,-42.77 34.92,-35.31 36.14,-45.83 42.44,-42.77"/>
</g>
<!-- dgeq_exceptions&#45;&gt;dgeq_aggregations -->
<g id="edge14" class="edge">
<title>dgeq_exceptions&#45;&gt;dgeq_aggregations</title><style>.edge>path:hover{stroke-width:8}</style>
<path fill="none" stroke="black" d="M121,-530.64C103.62,-501.02 158.03,-504.83 174,-474.43 192.81,-438.62 185.19,-425.11 193,-385.43"/>
<path fill="none" stroke="black" d="M193,-383.43C201.52,-353.45 193.32,-344.29 189,-313.43"/>
<path fill="none" stroke="black" d="M189,-311.43C187.03,-297.39 185.83,-281.72 185.1,-268.5"/>
<polygon fill="#06efef" stroke="black" points="188.6,-268.31 184.61,-258.49 181.6,-268.65 188.6,-268.31"/>
</g>
<!-- dgeq_exceptions&#45;&gt;dgeq_censor -->
<g id="edge15" class="edge">
<title>dgeq_exceptions&#45;&gt;dgeq_censor</title><style>.edge>path:hover{stroke-width:8}</style>
<path fill="none" stroke="black" d="M292,-588.59C292,-579.85 292,-569.52 292,-560.13"/>
<polygon fill="#06efef" stroke="black" points="295.5,-560.07 292,-550.07 288.5,-560.07 295.5,-560.07"/>
</g>
<!-- dgeq_exceptions&#45;&gt;dgeq_commands -->
<g id="edge16" class="edge">
<title>dgeq_exceptions&#45;&gt;dgeq_commands</title><style>.edge>path:hover{stroke-width:8}</style>
<path fill="none" stroke="black" d="M245.2,-602.66C204.35,-594.29 147.56,-575.28 121,-532.64"/>
<path fill="none" stroke="black" d="M121,-530.64C104.65,-504.39 89.58,-503.83 80,-474.43 47.36,-374.29 49.66,-331.26 99,-238.21"/>
<path fill="none" stroke="black" d="M99,-236.21C108.66,-216.99 124.84,-199.1 138.87,-185.81"/>
<polygon fill="#06efef" stroke="black" points="141.38,-188.26 146.4,-178.93 136.66,-183.1 141.38,-188.26"/>
</g>
<!-- dgeq_exceptions&#45;&gt;dgeq_dgeq -->
<g id="edge17" class="edge">
<title>dgeq_exceptions&#45;&gt;dgeq_dgeq</title><style>.edge>path:hover{stroke-width:8}</style>
<path fill="none" stroke="black" d="M447,-455.43C444.84,-424.39 445.49,-416.5 447,-385.43"/>
</g>
<!-- dgeq_filter -->
<g id="node10" class="node">
<title>dgeq_filter</title><style>.edge>path:hover{stroke-width:8}</style>
<ellipse fill="#24d0d0" stroke="black" cx="256" cy="-312.43" rx="38.7" ry="18"/>
<text text-anchor="middle" x="256" y="-309.93" font-family="Helvetica,sans-Serif" font-size="10.00" fill="#000000">dgeq.filter</text>
</g>
<!-- dgeq_exceptions&#45;&gt;dgeq_filter -->
<g id="edge18" class="edge">
<title>dgeq_exceptions&#45;&gt;dgeq_filter</title><style>.edge>path:hover{stroke-width:8}</style>
<path fill="none" stroke="black" d="M193,-383.43C196.94,-363.39 212.03,-346.25 226.45,-333.94"/>
<polygon fill="#06efef" stroke="black" points="228.72,-336.61 234.32,-327.61 224.33,-331.15 228.72,-336.61"/>
</g>
<!-- dgeq_exceptions&#45;&gt;dgeq_joins -->
<g id="edge19" class="edge">
<title>dgeq_exceptions&#45;&gt;dgeq_joins</title><style>.edge>path:hover{stroke-width:8}</style>
<path fill="none" stroke="black" d="M337.78,-601.61C367.85,-594.3 405.62,-580.1 428,-552.85 455.45,-519.44 452.56,-500.31 447,-457.43"/>
<path fill="none" stroke="black" d="M447,-455.43C444.54,-420.11 419.54,-419.22 409,-385.43"/>
</g>
<!-- dgeq_exceptions&#45;&gt;dgeq_utils -->
<g id="edge20" class="edge">
<title>dgeq_exceptions&#45;&gt;dgeq_utils</title><style>.edge>path:hover{stroke-width:8}</style>
<path fill="none" stroke="black" d="M121,-530.64C112.9,-516.83 114.19,-498.96 117.6,-484.33"/>
<polygon fill="#06efef" stroke="black" points="121.07,-484.93 120.36,-474.36 114.32,-483.06 121.07,-484.93"/>
</g>
<!-- dgeq_filter&#45;&gt;dgeq_aggregations -->
<g id="edge21" class="edge">
<title>dgeq_filter&#45;&gt;dgeq_aggregations</title><style>.edge>path:hover{stroke-width:8}</style>
<path fill="none" stroke="black" d="M240.38,-295.54C231.52,-286.54 220.22,-275.04 210.06,-264.71"/>
<polygon fill="#24d0d0" stroke="black" points="212.43,-262.13 202.92,-257.45 207.43,-267.03 212.43,-262.13"/>
</g>
<!-- dgeq_filter&#45;&gt;dgeq_commands -->
<g id="edge22" class="edge">
<title>dgeq_filter&#45;&gt;dgeq_commands</title><style>.edge>path:hover{stroke-width:8}</style>
<path fill="none" stroke="black" d="M259.35,-294.21C262.34,-273.99 264.31,-240.13 250,-216 241.04,-200.89 225.91,-189.42 210.94,-181.07"/>
<polygon fill="#24d0d0" stroke="black" points="212.19,-177.78 201.7,-176.28 208.96,-183.99 212.19,-177.78"/>
</g>
<!-- dgeq_filter&#45;&gt;dgeq_joins -->
<g id="edge23" class="edge">
<title>dgeq_filter&#45;&gt;dgeq_joins</title><style>.edge>path:hover{stroke-width:8}</style>
<path fill="none" stroke="black" d="M276.15,-296.96C291.28,-286.1 312.21,-271.08 329.12,-258.94"/>
<polygon fill="#24d0d0" stroke="black" points="331.46,-261.57 337.54,-252.9 327.38,-255.89 331.46,-261.57"/>
</g>
<!-- dgeq_joins&#45;&gt;dgeq_commands -->
<g id="edge24" class="edge">
<title>dgeq_joins&#45;&gt;dgeq_commands</title><style>.edge>path:hover{stroke-width:8}</style>
<path fill="none" stroke="black" d="M328.42,-224.93C296.94,-212.93 246.77,-193.8 210.52,-179.98"/>
<polygon fill="#2bacac" stroke="black" points="211.75,-176.7 201.15,-176.41 209.25,-183.24 211.75,-176.7"/>
</g>
<!-- dgeq_joins&#45;&gt;dgeq_dgeq -->
<g id="edge25" class="edge">
<title>dgeq_joins&#45;&gt;dgeq_dgeq</title><style>.edge>path:hover{stroke-width:8}</style>
<path fill="none" stroke="black" d="M389.48,-226.22C420.22,-214.52 460.56,-192.88 447,-163"/>
<path fill="none" stroke="black" d="M447,-161C419.54,-100.49 209.66,-91.56 111.42,-90.73"/>
<polygon fill="#2bacac" stroke="black" points="111.16,-87.23 101.14,-90.67 111.12,-94.23 111.16,-87.23"/>
</g>
<!-- dgeq_types&#45;&gt;dgeq_filter -->
<g id="edge26" class="edge">
<title>dgeq_types&#45;&gt;dgeq_filter</title><style>.edge>path:hover{stroke-width:8}</style>
<path fill="none" stroke="black" d="M320.58,-367.89C309.14,-358.24 294.27,-345.7 281.68,-335.09"/>
<polygon fill="#3ab0b0" stroke="black" points="283.7,-332.21 273.8,-328.44 279.19,-337.56 283.7,-332.21"/>
</g>
<!-- dgeq_utils&#45;&gt;dgeq -->
<g id="edge27" class="edge">
<title>dgeq_utils&#45;&gt;dgeq</title><style>.edge>path:hover{stroke-width:8}</style>
<path fill="none" stroke="black" d="M120.32,-438.53C110.62,-412.08 94.29,-359.17 99,-313.43"/>
<path fill="none" stroke="black" d="M99,-311.43C100.32,-287.1 91.08,-282.02 85,-258.43 74.08,-216.08 70.57,-205.67 61,-163"/>
<path fill="none" stroke="black" d="M61,-161C50.17,-130.8 23.69,-137.87 12,-108 4,-87.56 9.24,-62.85 15.63,-44.65"/>
<polygon fill="#05e5e5" stroke="black" points="18.91,-45.87 19.23,-35.28 12.38,-43.37 18.91,-45.87"/>
</g>
<!-- dgeq_utils&#45;&gt;dgeq_aggregations -->
<g id="edge28" class="edge">
<title>dgeq_utils&#45;&gt;dgeq_aggregations</title><style>.edge>path:hover{stroke-width:8}</style>
<path fill="none" stroke="black" d="M99,-311.43C101.37,-288.41 119.85,-270.99 138.97,-258.93"/>
<polygon fill="#05e5e5" stroke="black" points="140.91,-261.85 147.75,-253.76 137.35,-255.82 140.91,-261.85"/>
</g>
<!-- dgeq_utils&#45;&gt;dgeq_commands -->
<g id="edge29" class="edge">
<title>dgeq_utils&#45;&gt;dgeq_commands</title><style>.edge>path:hover{stroke-width:8}</style>
<path fill="none" stroke="black" d="M99,-311.43C102.34,-279.06 83.76,-266.96 99,-238.21"/>
</g>
<!-- dgeq_utils&#45;&gt;dgeq_dgeq -->
<g id="edge30" class="edge">
<title>dgeq_utils&#45;&gt;dgeq_dgeq</title><style>.edge>path:hover{stroke-width:8}</style>
<path fill="none" stroke="black" d="M61,-161C57.9,-147.2 57.62,-131.47 58.24,-118.43"/>
<polygon fill="#05e5e5" stroke="black" points="61.75,-118.42 58.92,-108.2 54.76,-117.95 61.75,-118.42"/>
</g>
<!-- dgeq_utils&#45;&gt;dgeq_joins -->
<g id="edge31" class="edge">
<title>dgeq_utils&#45;&gt;dgeq_joins</title><style>.edge>path:hover{stroke-width:8}</style>
<path fill="none" stroke="black" d="M151.08,-442.11C214.78,-406.87 382.92,-313.83 383,-313.43"/>
<path fill="none" stroke="black" d="M383,-311.43C385.44,-295.02 379.71,-277.4 373.12,-263.56"/>
<polygon fill="#05e5e5" stroke="black" points="376.21,-261.92 368.51,-254.65 369.99,-265.14 376.21,-261.92"/>
</g>
<!-- dgeq_utils&#45;&gt;dgeq_types -->
<g id="edge32" class="edge">
<title>dgeq_utils&#45;&gt;dgeq_types</title><style>.edge>path:hover{stroke-width:8}</style>
<path fill="none" stroke="black" d="M157.37,-445.4C194.08,-433.28 256.02,-412.83 297.21,-399.23"/>
<polygon fill="#05e5e5" stroke="black" points="298.55,-402.47 306.95,-396.01 296.35,-395.82 298.55,-402.47"/>
</g>
</g>
</svg>
